<svg width="2161" height="758" viewBox="0 0 2161 758" fill="none" xmlns="http://www.w3.org/2000/svg">
<g clip-path="url(#clip0_197_4)">
<path fill-rule="evenodd" clip-rule="evenodd" d="M2128 653.5C2234.5 790.5 2054.73 994.672 1994.5 1035C1904.72 1095.11 851.966 1187.73 745.597 1206.67C632.754 1226.76 505.928 1192.86 419.585 1117.48C332.758 1041.68 -52.5002 969 -11.5002 792.5C29.4998 616 263.808 591.601 279.019 483.628C295.408 367.288 286.452 225.53 377.697 151.517C470.636 76.1307 610.522 135.091 729.049 118.591C826.486 105.026 917.124 44.5861 1013.77 62.9671C1111.69 81.5919 1180.29 163.277 1262.26 220.003C1358.58 286.665 1492.41 263.943 1535 368.499C1589.36 501.944 1622.5 555 1734.5 571C1846.5 587 2021.5 516.5 2128 653.5Z" fill="#575757"/>
</g>
<defs>
<clipPath id="clip0_197_4">
<rect width="2161" height="758" fill="white"/>
</clipPath>
</defs>
</svg>
