<svg width="2282" height="758" viewBox="0 0 2282 758" fill="none" xmlns="http://www.w3.org/2000/svg">
<g clip-path="url(#clip0_197_4)">
<path fill-rule="evenodd" clip-rule="evenodd" d="M2249 653.5C2355.5 790.5 2175.73 994.672 2115.5 1035C2025.72 1095.11 972.966 1187.73 866.597 1206.67C753.754 1226.76 626.928 1192.86 540.585 1117.48C453.758 1041.68 68.4998 969 109.5 792.5C150.5 616 384.808 591.601 400.019 483.628C416.408 367.288 407.452 225.53 498.697 151.517C591.636 76.1307 731.522 135.091 850.049 118.591C947.486 105.026 1038.12 44.5861 1134.77 62.9671C1232.69 81.5919 1301.29 163.277 1383.26 220.003C1479.58 286.665 1613.41 263.943 1656 368.499C1710.36 501.944 1743.5 555 1855.5 571C1967.5 587 2142.5 516.5 2249 653.5Z" fill="#575757"/>
</g>
<defs>
<clipPath id="clip0_197_4">
<rect width="2282" height="758" fill="white"/>
</clipPath>
</defs>
</svg>
