<svg width="480" height="459" viewBox="0 0 480 459" fill="none" xmlns="http://www.w3.org/2000/svg">
<g clip-path="url(#clip0_2_2)">
<path d="M58.21 -0.250977C23.0127 -0.250977 0 22.8613 0 53.2393C0 82.9463 22.3271 106.718 56.8594 106.718H57.5273C93.4131 106.718 115.746 82.9463 115.746 53.2393C115.075 22.8613 93.4131 -0.250977 58.21 -0.250977V-0.250977Z" fill="black"/>
<path d="M6.08203 148.984H108.979V458.553H6.08203V148.984Z" fill="black"/>
<path d="M361.541 141.719C306.032 141.719 268.811 193.879 268.811 193.879V148.984H165.911V458.553H268.805V285.678C268.805 276.423 269.476 267.183 272.194 260.564C279.633 242.084 296.561 222.938 324.987 222.938C362.221 222.938 377.112 251.327 377.112 292.943V458.553H480V281.052C480 185.966 429.234 141.719 361.541 141.719V141.719Z" fill="black"/>
</g>
<defs>
<clipPath id="clip0_2_2">
<rect width="480" height="459" fill="white"/>
</clipPath>
</defs>
</svg>
