<svg width="232" height="202" viewBox="0 0 232 202" fill="none" xmlns="http://www.w3.org/2000/svg">
<path d="M112.273 0.903297C128.629 -0.19241 140.477 16.3448 156.129 21.2073C177.679 27.9019 205.791 18.3634 221.279 34.7675C236.065 50.428 231.824 76.5846 228.511 97.8696C225.453 117.524 214.106 134.15 203.222 150.804C192.784 166.777 183.743 185.65 166.214 193.193C148.976 200.61 129.678 189.389 110.947 190.51C90.4598 191.736 70.9321 205.649 51.1836 200.075C30.2911 194.177 7.03596 180.64 1.57175 159.635C-4.15175 137.634 17.8733 118.356 24.2472 96.5287C28.6424 81.4772 24.4172 64.1383 33.2435 51.1754C41.9225 38.4285 58.6672 35.1424 71.6801 26.8647C85.467 18.0946 95.9709 1.99539 112.273 0.903297Z" fill="white"/>
</svg>
