<svg width="94" height="85" viewBox="0 0 94 85" fill="none" xmlns="http://www.w3.org/2000/svg">
<path d="M49.7863 0.0875828C56.5143 0.44921 62.9029 2.11533 69.0891 4.7697C76.1497 7.79925 84.0377 10.3236 88.3674 16.6419C92.8202 23.1398 92.3157 31.5545 92.8209 39.4009C93.3778 48.0476 95.8004 57.3936 91.4761 64.9163C87.1266 72.4828 77.9778 75.6358 69.9628 79.1657C62.329 82.5277 54.3789 84.6601 46.034 84.9295C37.2155 85.2143 28.196 84.7886 20.3546 80.7675C12.1672 76.5689 4.04555 70.4677 0.986927 61.8287C-2.01487 53.3502 2.62857 44.3594 4.33962 35.5335C5.81312 27.9329 5.58907 19.6258 10.3553 13.505C15.0073 7.5309 22.744 5.11174 29.9341 2.66513C36.3575 0.479394 43.0069 -0.276806 49.7863 0.0875828Z" fill="white"/>
</svg>
