<svg width="1051" height="1000" viewBox="0 0 1051 1000" fill="none" xmlns="http://www.w3.org/2000/svg">
<path d="M639.2 159.82C711.969 193.82 864.303 12.4955 918.712 72.2795C973.654 130.462 987.136 254.095 1005.41 332.321C1023.09 408.025 1059.58 481.386 1049.16 558.427C1038.62 636.447 988.657 701.34 946.532 767.842C902.28 837.703 868.591 922.957 794.726 960.109C720.907 997.237 632.553 962.528 550.064 967.253C466.292 972.051 379.144 1022.22 302.385 988.311C225.556 954.374 164.99 845.202 139.92 770.471C82.7211 706.802 58.7902 669.096 31.6356 587.917C4.59306 507.074 -10.7904 449.473 8.89651 366.53C27.7816 286.964 31.5448 200.102 81.6009 135.448C131.386 71.1444 215.271 48.0686 286.215 8.33754C358.376 -32.0749 413.548 87.5113 496.244 88.2926C579.156 89.076 564.074 124.719 639.2 159.82Z" fill="url(#paint0_linear_217_27)"/>
<defs>
<linearGradient id="paint0_linear_217_27" x1="877.638" y1="-157.783" x2="425.327" y2="782.505" gradientUnits="userSpaceOnUse">
<stop stop-color="#EC6931"/>
<stop offset="1" stop-color="#F6980B"/>
</linearGradient>
</defs>
</svg>
