<svg width="1060" height="1010" viewBox="0 0 1060 1010" fill="none" xmlns="http://www.w3.org/2000/svg">
<path d="M817.767 39.6017C825.77 41.8662 898.494 53.6442 951.717 113.759C1004.93 173.864 996.12 264.934 1014.39 343.072C1032.08 418.691 1068.58 491.969 1058.16 568.923C1047.61 646.855 997.641 711.675 955.506 778.103C911.243 847.886 877.545 933.044 803.662 970.153C729.824 1007.24 641.448 972.57 558.938 977.29C475.145 982.083 387.975 1032.19 311.197 998.324C234.349 964.425 175.369 843.742 146.024 811.122C121.081 783.396 48.7114 708.217 17.6353 615.443C-9.41408 534.69 -2.05669 460.092 17.6352 377.242C36.525 297.766 40.2892 211.001 90.3578 146.42C147.13 73.1926 163.096 55.2465 270.875 16.1416C334.368 -6.89527 466.155 0.678885 522.178 3.34515C648.067 9.33648 809.764 37.3373 817.767 39.6017Z" fill="white"/>
</svg>
