<svg width="652" height="1043" viewBox="0 0 652 1043" fill="none" xmlns="http://www.w3.org/2000/svg">
<path d="M25.1559 65.3232C26.2461 48.7818 37.4443 34.8951 53.5642 31.0282C99.2971 20.0575 200.543 0 329.5 0C465.546 0 534.622 26.1419 559.466 38.3523C566.88 41.9961 571.953 48.5401 574.51 56.3951C590.003 103.989 645.345 289.74 650.5 529C655.229 748.505 641.011 922.662 634.775 986.596C633.209 1002.65 621.907 1015.76 606.106 1019.03C563.677 1027.79 469.789 1043 329.5 1043C188.513 1043 94.3907 1027.63 52.2651 1018.9C36.7972 1015.69 25.5948 1003.04 23.6781 987.359C15.4329 919.907 -4.82587 728.669 1.99998 525.5C8.76992 323.995 20.6146 134.226 25.1559 65.3232Z" fill="url(#paint0_linear_209_57)"/>
<defs>
<linearGradient id="paint0_linear_209_57" x1="493.5" y1="923" x2="133.5" y2="825.5" gradientUnits="userSpaceOnUse">
<stop stop-color="#FFA800"/>
<stop offset="0.0001" stop-color="#FFA800"/>
<stop offset="1" stop-color="#FFD747"/>
</linearGradient>
</defs>
</svg>
