<svg width="657" height="1040" viewBox="0 0 657 1040" fill="none" xmlns="http://www.w3.org/2000/svg">
<path d="M178 104.5C228.5 99.3711 242.851 104.5 300.5 50.5C340 13.5 377.5 0.5 421.5 0.5C500.096 4.27537 569.976 19.1236 606.072 28.0642C621.835 31.9686 632.994 45.4985 634.395 61.6776C640.651 133.912 657 340.141 657 522.5C657 704.48 640.719 910.231 634.434 982.87C633.014 999.286 621.591 1012.85 605.451 1016.16C562.715 1024.94 469.072 1040 329.5 1040C188.513 1040 94.391 1024.63 52.2653 1015.9C36.7973 1012.69 25.5948 1000.04 23.678 984.358C15.4328 916.907 -4.82586 725.668 1.99998 522.5C5.94924 404.952 10.5541 312.897 15.5 225C17.7292 185.384 32 150.454 69.5 128.5C107 106.546 127.5 109.629 178 104.5Z" fill="white"/>
</svg>
