<svg width="657" height="1043" viewBox="0 0 657 1043" fill="none" xmlns="http://www.w3.org/2000/svg">
<path d="M25.1559 65.3232C26.2461 48.7818 37.4443 34.8951 53.5642 31.0282C99.2972 20.0575 200.543 0 329.5 0C459.139 0 560.773 20.2703 606.157 31.2016C621.92 34.9984 632.992 48.476 634.391 64.6296C640.643 136.82 657 343.1 657 525.5C657 707.48 640.718 913.231 634.434 985.87C633.014 1002.29 621.591 1015.85 605.451 1019.16C562.715 1027.94 469.072 1043 329.5 1043C188.513 1043 94.3907 1027.63 52.2651 1018.9C36.7972 1015.69 25.5948 1003.04 23.6781 987.359C15.4329 919.907 -4.82587 728.669 1.99998 525.5C8.76992 323.995 20.6146 134.226 25.1559 65.3232Z" fill="#FF6B00"/>
</svg>
